<?xml version="1.0" encoding="UTF-8"?>
<svg id="_1" data-name="1" xmlns="http://www.w3.org/2000/svg" viewBox="0 0 485 155">
  <defs>
    <style>
      .cls-1 {
        fill: #99a2b0;
        stroke: #bcc8d9;
      }

      .cls-1, .cls-2 {
        stroke-linecap: round;
        stroke-linejoin: round;
        stroke-width: 3.39px;
      }

      .cls-2 {
        fill: #557fc0;
        stroke: #93b0db;
      }
    </style>
  </defs>
  <polygon class="cls-2" points="81.2 118.72 36.43 146.4 48.92 95.26 8.75 61.23 61.25 57.31 81.2 8.6 101.15 57.31 153.65 61.23 113.49 95.26 125.98 146.4 81.2 118.72"/>
  <polygon class="cls-2" points="242.5 118.72 197.72 146.4 210.22 95.26 170.05 61.23 222.55 57.31 242.5 8.6 262.45 57.31 314.95 61.23 274.78 95.26 287.28 146.4 242.5 118.72"/>
  <polygon class="cls-1" points="403.8 118.72 359.02 146.4 371.51 95.26 331.35 61.23 383.85 57.31 403.8 8.6 423.75 57.31 476.25 61.23 436.08 95.26 448.57 146.4 403.8 118.72"/>
</svg>