<?xml version="1.0" encoding="UTF-8"?>
<svg id="_1" data-name="1" xmlns="http://www.w3.org/2000/svg" viewBox="0 0 1095 155">
  <defs>
    <style>
      .cls-1 {
        fill: #f68c70;
      }

      .cls-2 {
        fill: #f6ac69;
      }

      .cls-3 {
        fill: #f2f2f2;
      }

      .cls-4 {
        fill: #b3b3b3;
      }

      .cls-5 {
        fill: #999;
      }

      .cls-6 {
        fill: #ececec;
      }
    </style>
  </defs>
  <g id="expert">
    <g>
      <polygon class="cls-4" points="794.16 153.12 794.16 1.88 1039.02 1.88 1089.55 77.5 1039.02 153.12 794.16 153.12"/>
      <path class="cls-6" d="M1037.96,3.88l49.19,73.62-49.19,73.62h-241.79V3.88h241.79M1040.09-.12h-247.93v155.23h247.93l51.86-77.62L1040.09-.12h0Z"/>
    </g>
    <g id="text">
      <path class="cls-3" d="M899.9,77.04h-10.33v9.58h11.51v2.88h-14.94v-26.56h14.35v2.88h-10.92v8.4h10.33v2.84Z"/>
      <path class="cls-3" d="M907.04,70.42l2.72,4.1c.71,1.06,1.3,2.05,1.93,3.11h.12c.63-1.14,1.26-2.13,1.89-3.15l2.68-4.06h3.75l-6.5,9.22,6.7,9.85h-3.94l-2.8-4.3c-.75-1.1-1.38-2.17-2.05-3.31h-.08c-.63,1.14-1.3,2.17-2.01,3.31l-2.76,4.3h-3.82l6.78-9.74-6.46-9.34h3.86Z"/>
      <path class="cls-3" d="M923.67,76.65c0-2.44-.08-4.41-.16-6.23h3.11l.16,3.27h.08c1.42-2.33,3.67-3.71,6.78-3.71,4.61,0,8.08,3.9,8.08,9.7,0,6.86-4.18,10.25-8.67,10.25-2.52,0-4.73-1.1-5.87-3h-.08v10.37h-3.43v-20.65ZM927.09,81.73c0,.51.08.99.16,1.42.63,2.4,2.72,4.06,5.2,4.06,3.67,0,5.79-3,5.79-7.37,0-3.82-2.01-7.09-5.68-7.09-2.36,0-4.57,1.7-5.24,4.3-.12.43-.24.95-.24,1.42v3.27Z"/>
      <path class="cls-3" d="M948.02,80.59c.08,4.69,3.07,6.62,6.54,6.62,2.48,0,3.98-.43,5.28-.99l.59,2.48c-1.22.55-3.31,1.18-6.35,1.18-5.87,0-9.38-3.86-9.38-9.62s3.39-10.29,8.95-10.29c6.23,0,7.88,5.48,7.88,8.99,0,.71-.08,1.26-.12,1.62h-13.4ZM958.19,78.11c.04-2.21-.91-5.64-4.81-5.64-3.51,0-5.04,3.23-5.32,5.64h10.13Z"/>
      <path class="cls-3" d="M965.83,76.37c0-2.25-.04-4.18-.16-5.95h3.04l.12,3.74h.16c.87-2.56,2.96-4.18,5.28-4.18.39,0,.67.04.99.12v3.27c-.35-.08-.71-.12-1.18-.12-2.44,0-4.18,1.85-4.65,4.45-.08.47-.16,1.02-.16,1.62v10.17h-3.43v-13.12Z"/>
      <path class="cls-3" d="M983.84,64.94v5.48h4.97v2.64h-4.97v10.29c0,2.37.67,3.71,2.6,3.71.91,0,1.58-.12,2.01-.24l.16,2.6c-.67.28-1.73.47-3.07.47-1.62,0-2.92-.51-3.74-1.46-.99-1.02-1.34-2.72-1.34-4.97v-10.41h-2.96v-2.64h2.96v-4.57l3.39-.91Z"/>
      <path class="cls-3" d="M991.88,73.58c0-1.46.99-2.48,2.36-2.48s2.29,1.03,2.33,2.48c0,1.38-.91,2.44-2.37,2.44-1.38,0-2.33-1.06-2.33-2.44ZM991.88,87.49c0-1.46.99-2.48,2.36-2.48s2.29,1.02,2.33,2.48c0,1.38-.91,2.44-2.37,2.44-1.38,0-2.33-1.06-2.33-2.44Z"/>
      <path class="cls-3" d="M1004.73,65.06c.04,1.18-.83,2.13-2.21,2.13-1.22,0-2.09-.95-2.09-2.13s.91-2.17,2.17-2.17,2.13.95,2.13,2.17ZM1000.87,89.5v-19.08h3.47v19.08h-3.47Z"/>
      <path class="cls-3" d="M1010.09,75.59c0-1.97-.04-3.59-.16-5.16h3.07l.2,3.15h.08c.95-1.81,3.15-3.59,6.31-3.59,2.64,0,6.74,1.58,6.74,8.12v11.39h-3.47v-11c0-3.07-1.14-5.64-4.41-5.64-2.29,0-4.06,1.62-4.65,3.55-.16.43-.24,1.02-.24,1.62v11.47h-3.47v-13.91Z"/>
    </g>
  </g>
  <g id="proficient">
    <g>
      <polygon class="cls-5" points="518.86 153.12 518.86 1.88 792.94 1.88 849.41 77.5 792.94 153.12 518.86 153.12"/>
      <path class="cls-6" d="M791.94,3.88l54.97,73.62-54.97,73.62h-271.08V3.88h271.08M793.94-.12h-277.08v155.23h277.08l57.96-77.62L793.94-.12h0Z"/>
    </g>
    <g id="text-2" data-name="text">
      <path class="cls-3" d="M610.85,62.93h3.43v12.81h.12c.71-1.03,1.42-1.97,2.09-2.84l8.12-9.97h4.26l-9.62,11.27,10.37,15.29h-4.06l-8.75-13.05-2.52,2.92v10.13h-3.43v-26.56Z"/>
      <path class="cls-3" d="M649.35,79.8c0,7.05-4.89,10.13-9.5,10.13-5.16,0-9.14-3.78-9.14-9.81,0-6.38,4.18-10.13,9.46-10.13s9.18,3.98,9.18,9.81ZM634.22,80c0,4.18,2.4,7.33,5.79,7.33s5.79-3.11,5.79-7.41c0-3.23-1.62-7.33-5.72-7.33s-5.87,3.78-5.87,7.41Z"/>
      <path class="cls-3" d="M653.72,75.59c0-1.97-.04-3.59-.16-5.16h3.03l.16,3.07h.12c1.06-1.81,2.84-3.51,5.99-3.51,2.6,0,4.57,1.58,5.4,3.82h.08c.59-1.06,1.34-1.89,2.13-2.48,1.14-.87,2.4-1.34,4.22-1.34,2.52,0,6.27,1.66,6.27,8.28v11.23h-3.39v-10.8c0-3.67-1.34-5.87-4.14-5.87-1.97,0-3.51,1.46-4.1,3.15-.16.47-.28,1.1-.28,1.73v11.78h-3.39v-11.43c0-3.04-1.34-5.24-3.98-5.24-2.17,0-3.75,1.73-4.3,3.47-.2.51-.28,1.1-.28,1.69v11.51h-3.39v-13.91Z"/>
      <path class="cls-3" d="M686.59,76.65c0-2.44-.08-4.41-.16-6.23h3.11l.16,3.27h.08c1.42-2.33,3.67-3.71,6.78-3.71,4.61,0,8.08,3.9,8.08,9.7,0,6.86-4.18,10.25-8.67,10.25-2.52,0-4.73-1.1-5.87-3h-.08v10.37h-3.43v-20.65ZM690.02,81.73c0,.51.08.99.16,1.42.63,2.4,2.72,4.06,5.2,4.06,3.67,0,5.79-3,5.79-7.37,0-3.82-2.01-7.09-5.68-7.09-2.36,0-4.57,1.7-5.24,4.3-.12.43-.24.95-.24,1.42v3.27Z"/>
      <path class="cls-3" d="M710.94,80.59c.08,4.69,3.07,6.62,6.54,6.62,2.48,0,3.98-.43,5.28-.99l.59,2.48c-1.22.55-3.31,1.18-6.35,1.18-5.87,0-9.38-3.86-9.38-9.62s3.39-10.29,8.95-10.29c6.23,0,7.88,5.48,7.88,8.99,0,.71-.08,1.26-.12,1.62h-13.4ZM721.11,78.11c.04-2.21-.91-5.64-4.81-5.64-3.51,0-5.04,3.23-5.32,5.64h10.13Z"/>
      <path class="cls-3" d="M732.93,64.94v5.48h4.97v2.64h-4.97v10.29c0,2.37.67,3.71,2.6,3.71.91,0,1.58-.12,2.01-.24l.16,2.6c-.67.28-1.73.47-3.07.47-1.62,0-2.92-.51-3.75-1.46-.99-1.02-1.34-2.72-1.34-4.97v-10.41h-2.96v-2.64h2.96v-4.57l3.39-.91Z"/>
      <path class="cls-3" d="M743.5,80.59c.08,4.69,3.07,6.62,6.54,6.62,2.48,0,3.98-.43,5.28-.99l.59,2.48c-1.22.55-3.31,1.18-6.35,1.18-5.87,0-9.38-3.86-9.38-9.62s3.39-10.29,8.95-10.29c6.23,0,7.88,5.48,7.88,8.99,0,.71-.08,1.26-.12,1.62h-13.4ZM753.66,78.11c.04-2.21-.91-5.64-4.81-5.64-3.51,0-5.04,3.23-5.32,5.64h10.13Z"/>
      <path class="cls-3" d="M761.31,75.59c0-1.97-.04-3.59-.16-5.16h3.07l.2,3.15h.08c.95-1.81,3.15-3.59,6.31-3.59,2.64,0,6.74,1.58,6.74,8.12v11.39h-3.47v-11c0-3.07-1.14-5.64-4.41-5.64-2.29,0-4.06,1.62-4.65,3.55-.16.43-.24,1.02-.24,1.62v11.47h-3.47v-13.91Z"/>
      <path class="cls-3" d="M787.2,64.94v5.48h4.97v2.64h-4.97v10.29c0,2.37.67,3.71,2.6,3.71.91,0,1.58-.12,2.01-.24l.16,2.6c-.67.28-1.73.47-3.07.47-1.62,0-2.92-.51-3.75-1.46-.99-1.02-1.34-2.72-1.34-4.97v-10.41h-2.96v-2.64h2.96v-4.57l3.39-.91Z"/>
    </g>
  </g>
  <g id="intermediate">
    <g>
      <polygon class="cls-1" points="203.18 153.12 203.18 1.88 519.1 1.88 584.08 77.5 519.1 153.12 203.18 153.12"/>
      <path class="cls-6" d="M518.18,3.88l63.26,73.62-63.26,73.62H205.18V3.88h313M520.02-.12H201.18v155.23h318.84l66.69-77.62L520.02-.12h0Z"/>
    </g>
    <g id="text-3" data-name="text">
      <path class="cls-3" d="M269.73,62.94h14.31v2.88h-10.88v8.83h10.05v2.84h-10.05v12.02h-3.43v-26.56Z"/>
      <path class="cls-3" d="M304.85,79.8c0,7.05-4.89,10.13-9.5,10.13-5.16,0-9.14-3.78-9.14-9.81,0-6.38,4.18-10.13,9.46-10.13s9.18,3.98,9.18,9.81ZM289.71,80c0,4.18,2.4,7.33,5.79,7.33s5.79-3.11,5.79-7.41c0-3.23-1.62-7.33-5.72-7.33s-5.87,3.78-5.87,7.41Z"/>
      <path class="cls-3" d="M309.22,76.37c0-2.25-.04-4.18-.16-5.95h3.03l.12,3.74h.16c.87-2.56,2.96-4.18,5.28-4.18.39,0,.67.04.99.12v3.27c-.35-.08-.71-.12-1.18-.12-2.44,0-4.18,1.85-4.65,4.45-.08.47-.16,1.02-.16,1.62v10.17h-3.43v-13.12Z"/>
      <path class="cls-3" d="M327.23,64.94v5.48h4.97v2.64h-4.97v10.29c0,2.37.67,3.71,2.6,3.71.91,0,1.58-.12,2.01-.24l.16,2.6c-.67.28-1.73.47-3.07.47-1.62,0-2.92-.51-3.74-1.46-.99-1.02-1.34-2.72-1.34-4.97v-10.41h-2.96v-2.64h2.96v-4.57l3.39-.91Z"/>
      <path class="cls-3" d="M352.29,70.42c-.08,1.38-.16,2.92-.16,5.24v11.08c0,4.38-.87,7.05-2.72,8.71-1.85,1.73-4.53,2.29-6.94,2.29s-4.81-.55-6.35-1.58l.87-2.64c1.26.79,3.23,1.5,5.6,1.5,3.55,0,6.15-1.85,6.15-6.66v-2.13h-.08c-1.06,1.77-3.11,3.19-6.07,3.19-4.73,0-8.12-4.02-8.12-9.3,0-6.46,4.22-10.13,8.59-10.13,3.31,0,5.12,1.73,5.95,3.31h.08l.16-2.88h3.03ZM348.71,77.95c0-.59-.04-1.1-.2-1.58-.63-2.01-2.33-3.67-4.85-3.67-3.31,0-5.68,2.8-5.68,7.21,0,3.74,1.89,6.86,5.64,6.86,2.13,0,4.06-1.34,4.81-3.55.2-.59.28-1.26.28-1.85v-3.43Z"/>
      <path class="cls-3" d="M359.82,80.59c.08,4.69,3.07,6.62,6.54,6.62,2.48,0,3.98-.43,5.28-.99l.59,2.48c-1.22.55-3.31,1.18-6.35,1.18-5.87,0-9.38-3.86-9.38-9.62s3.39-10.29,8.95-10.29c6.23,0,7.88,5.48,7.88,8.99,0,.71-.08,1.26-.12,1.62h-13.4ZM369.99,78.11c.04-2.21-.91-5.64-4.81-5.64-3.51,0-5.04,3.23-5.32,5.64h10.13Z"/>
      <path class="cls-3" d="M377.16,85.95c1.02.67,2.84,1.38,4.57,1.38,2.52,0,3.71-1.26,3.71-2.84,0-1.66-.99-2.56-3.55-3.51-3.43-1.22-5.04-3.11-5.04-5.4,0-3.07,2.48-5.6,6.58-5.6,1.93,0,3.63.55,4.69,1.18l-.87,2.52c-.75-.47-2.13-1.1-3.9-1.1-2.05,0-3.19,1.18-3.19,2.6,0,1.58,1.14,2.29,3.63,3.23,3.31,1.26,5.01,2.92,5.01,5.75,0,3.35-2.6,5.72-7.13,5.72-2.09,0-4.02-.51-5.36-1.3l.87-2.64Z"/>
      <path class="cls-3" d="M406.84,88.79c-.91.47-2.92,1.1-5.48,1.1-5.75,0-9.5-3.9-9.5-9.74s4.02-10.13,10.25-10.13c2.05,0,3.86.51,4.81.99l-.79,2.68c-.83-.47-2.13-.91-4.02-.91-4.38,0-6.74,3.23-6.74,7.21,0,4.42,2.84,7.13,6.62,7.13,1.97,0,3.27-.51,4.26-.95l.59,2.6Z"/>
      <path class="cls-3" d="M410.89,61.52h3.47v11.9h.08c.55-.99,1.42-1.85,2.48-2.44,1.02-.59,2.25-.99,3.55-.99,2.56,0,6.66,1.58,6.66,8.16v11.35h-3.47v-10.96c0-3.07-1.14-5.68-4.41-5.68-2.25,0-4.02,1.58-4.65,3.47-.2.47-.24.99-.24,1.66v11.51h-3.47v-27.98Z"/>
      <path class="cls-3" d="M432.76,76.37c0-2.25-.04-4.18-.16-5.95h3.03l.12,3.74h.16c.87-2.56,2.96-4.18,5.28-4.18.39,0,.67.04.99.12v3.27c-.35-.08-.71-.12-1.18-.12-2.44,0-4.18,1.85-4.65,4.45-.08.47-.16,1.02-.16,1.62v10.17h-3.43v-13.12Z"/>
      <path class="cls-3" d="M449.67,65.06c.04,1.18-.83,2.13-2.21,2.13-1.22,0-2.09-.95-2.09-2.13s.91-2.17,2.17-2.17,2.13.95,2.13,2.17ZM445.81,89.5v-19.08h3.47v19.08h-3.47Z"/>
      <path class="cls-3" d="M459.21,64.94v5.48h4.97v2.64h-4.97v10.29c0,2.37.67,3.71,2.6,3.71.91,0,1.58-.12,2.01-.24l.16,2.6c-.67.28-1.73.47-3.07.47-1.62,0-2.92-.51-3.74-1.46-.99-1.02-1.34-2.72-1.34-4.97v-10.41h-2.96v-2.64h2.96v-4.57l3.39-.91Z"/>
      <path class="cls-3" d="M472.25,64.94v5.48h4.97v2.64h-4.97v10.29c0,2.37.67,3.71,2.6,3.71.91,0,1.58-.12,2.01-.24l.16,2.6c-.67.28-1.73.47-3.07.47-1.62,0-2.92-.51-3.74-1.46-.99-1.02-1.34-2.72-1.34-4.97v-10.41h-2.96v-2.64h2.96v-4.57l3.39-.91Z"/>
      <path class="cls-3" d="M482.81,80.59c.08,4.69,3.07,6.62,6.54,6.62,2.48,0,3.98-.43,5.28-.99l.59,2.48c-1.22.55-3.31,1.18-6.35,1.18-5.87,0-9.38-3.86-9.38-9.62s3.39-10.29,8.95-10.29c6.23,0,7.88,5.48,7.88,8.99,0,.71-.08,1.26-.12,1.62h-13.4ZM492.98,78.11c.04-2.21-.91-5.64-4.81-5.64-3.51,0-5.04,3.23-5.32,5.64h10.13Z"/>
      <path class="cls-3" d="M500.63,75.59c0-1.97-.04-3.59-.16-5.16h3.07l.2,3.15h.08c.95-1.81,3.15-3.59,6.31-3.59,2.64,0,6.74,1.58,6.74,8.12v11.39h-3.47v-11c0-3.07-1.14-5.64-4.41-5.64-2.29,0-4.06,1.62-4.65,3.55-.16.43-.24,1.02-.24,1.62v11.47h-3.47v-13.91Z"/>
    </g>
  </g>
  <g id="novice">
    <g>
      <polygon class="cls-2" points="2 153.12 2 1.88 202.82 1.88 244.39 77.5 202.82 153.12 2 153.12"/>
      <path class="cls-6" d="M201.64,3.88l40.47,73.62-40.47,73.62H4V3.88h197.64M204-.12H0v155.23h204l42.67-77.62L204-.12h0Z"/>
    </g>
    <g id="text-4" data-name="text">
      <path class="cls-3" d="M27.04,63.29c1.5-.32,3.86-.55,6.27-.55,3.43,0,5.64.59,7.29,1.93,1.38,1.02,2.21,2.6,2.21,4.69,0,2.56-1.69,4.81-4.49,5.83v.08c2.52.63,5.48,2.72,5.48,6.66,0,2.29-.91,4.02-2.25,5.32-1.85,1.69-4.85,2.48-9.18,2.48-2.36,0-4.18-.16-5.32-.32v-26.13ZM30.46,74.17h3.11c3.63,0,5.75-1.89,5.75-4.45,0-3.11-2.36-4.34-5.83-4.34-1.58,0-2.48.12-3.03.24v8.55ZM30.46,86.9c.67.12,1.66.16,2.88.16,3.55,0,6.82-1.3,6.82-5.16,0-3.63-3.11-5.12-6.86-5.12h-2.84v10.13Z"/>
      <path class="cls-3" d="M50.37,80.59c.08,4.69,3.07,6.62,6.54,6.62,2.48,0,3.98-.43,5.28-.99l.59,2.48c-1.22.55-3.31,1.18-6.35,1.18-5.87,0-9.38-3.86-9.38-9.62s3.39-10.29,8.95-10.29c6.23,0,7.88,5.48,7.88,8.99,0,.71-.08,1.26-.12,1.62h-13.4ZM60.53,78.11c.04-2.21-.91-5.64-4.81-5.64-3.51,0-5.04,3.23-5.32,5.64h10.13Z"/>
      <path class="cls-3" d="M84.61,70.42c-.08,1.38-.16,2.92-.16,5.24v11.08c0,4.38-.87,7.05-2.72,8.71-1.85,1.73-4.53,2.29-6.94,2.29s-4.81-.55-6.35-1.58l.87-2.64c1.26.79,3.23,1.5,5.6,1.5,3.55,0,6.15-1.85,6.15-6.66v-2.13h-.08c-1.06,1.77-3.11,3.19-6.07,3.19-4.73,0-8.12-4.02-8.12-9.3,0-6.46,4.22-10.13,8.59-10.13,3.31,0,5.12,1.73,5.95,3.31h.08l.16-2.88h3.03ZM81.03,77.95c0-.59-.04-1.1-.2-1.58-.63-2.01-2.33-3.67-4.85-3.67-3.31,0-5.68,2.8-5.68,7.21,0,3.74,1.89,6.86,5.64,6.86,2.13,0,4.06-1.34,4.81-3.55.2-.59.28-1.26.28-1.85v-3.43Z"/>
      <path class="cls-3" d="M93.83,65.06c.04,1.18-.83,2.13-2.21,2.13-1.22,0-2.09-.95-2.09-2.13s.91-2.17,2.17-2.17,2.13.95,2.13,2.17ZM89.97,89.5v-19.08h3.47v19.08h-3.47Z"/>
      <path class="cls-3" d="M99.19,75.59c0-1.97-.04-3.59-.16-5.16h3.07l.2,3.15h.08c.95-1.81,3.15-3.59,6.31-3.59,2.64,0,6.74,1.58,6.74,8.12v11.39h-3.47v-11c0-3.07-1.14-5.64-4.41-5.64-2.29,0-4.06,1.62-4.65,3.55-.16.43-.24,1.02-.24,1.62v11.47h-3.47v-13.91Z"/>
      <path class="cls-3" d="M121.06,75.59c0-1.97-.04-3.59-.16-5.16h3.07l.2,3.15h.08c.95-1.81,3.15-3.59,6.31-3.59,2.64,0,6.74,1.58,6.74,8.12v11.39h-3.47v-11c0-3.07-1.14-5.64-4.41-5.64-2.29,0-4.06,1.62-4.65,3.55-.16.43-.24,1.02-.24,1.62v11.47h-3.47v-13.91Z"/>
      <path class="cls-3" d="M144.87,80.59c.08,4.69,3.07,6.62,6.54,6.62,2.48,0,3.98-.43,5.28-.99l.59,2.48c-1.22.55-3.31,1.18-6.35,1.18-5.87,0-9.38-3.86-9.38-9.62s3.39-10.29,8.95-10.29c6.23,0,7.88,5.48,7.88,8.99,0,.71-.08,1.26-.12,1.62h-13.4ZM155.04,78.11c.04-2.21-.91-5.64-4.81-5.64-3.51,0-5.04,3.23-5.32,5.64h10.13Z"/>
      <path class="cls-3" d="M162.68,75.59c0-1.97-.04-3.59-.16-5.16h3.07l.2,3.15h.08c.95-1.81,3.15-3.59,6.31-3.59,2.64,0,6.74,1.58,6.74,8.12v11.39h-3.47v-11c0-3.07-1.14-5.64-4.41-5.64-2.29,0-4.06,1.62-4.65,3.55-.16.43-.24,1.02-.24,1.62v11.47h-3.47v-13.91Z"/>
      <path class="cls-3" d="M201.03,61.52v23.06c0,1.7.04,3.63.16,4.93h-3.11l-.16-3.31h-.08c-1.06,2.13-3.39,3.74-6.5,3.74-4.61,0-8.16-3.9-8.16-9.7-.04-6.35,3.9-10.25,8.55-10.25,2.92,0,4.89,1.38,5.75,2.92h.08v-11.39h3.47ZM197.56,78.19c0-.43-.04-1.02-.16-1.46-.51-2.21-2.4-4.02-5.01-4.02-3.59,0-5.72,3.15-5.72,7.37,0,3.86,1.89,7.05,5.64,7.05,2.33,0,4.45-1.54,5.08-4.14.12-.47.16-.95.16-1.5v-3.31Z"/>
    </g>
  </g>
</svg>